<svg xmlns="http://www.w3.org/2000/svg" width="27" height="27" viewBox="1223.018 0 27 27"><g data-name="Group 141"><path d="M1223.018 0h27v27h-27V0z" fill="#fff" fill-rule="evenodd" data-name="Rectangle 99"/><g data-name="Icon feather-instagram"><path d="M1232.476 5.617h7.95a3.975 3.975 0 0 1 3.975 3.975v7.95a3.975 3.975 0 0 1-3.975 3.975h-7.95a3.975 3.975 0 0 1-3.976-3.975v-7.95a3.975 3.975 0 0 1 3.976-3.975Z" stroke-linejoin="round" stroke-linecap="round" stroke-width="2" stroke="#000" fill="transparent" data-name="Path 425"/><path d="M1239.63 13.066a3.18 3.18 0 1 1-6.29.933 3.18 3.18 0 0 1 6.29-.933Z" stroke-linejoin="round" stroke-linecap="round" stroke-width="2" stroke="#000" fill="transparent" data-name="Path 426"/><path d="M1240.823 9.194h0" stroke-linejoin="round" stroke-linecap="round" stroke-width="2" stroke="#000" fill="transparent" data-name="Path 427"/></g></g></svg>